<svg width="509" height="163" viewBox="0 0 509 163" fill="none" xmlns="http://www.w3.org/2000/svg">
<path d="M370.531 78.6687C373.156 75.5187 376.438 73.9437 380.375 73.9437C384.4 73.9437 387.506 74.95 389.694 76.9625C391.881 78.975 392.975 81.8187 392.975 85.4937V86.2812C396.913 78.0562 402.031 73.9437 408.331 73.9437C415.069 73.9437 418.438 77.4437 418.438 84.4437C418.438 87.3312 417.475 90.3937 415.55 93.6312C413.625 96.8687 411.7 99.975 409.775 102.95C407.85 105.837 406.888 108.419 406.888 110.694H403.738C403.738 107.456 405.619 103.081 409.381 97.5687C413.144 92.0562 415.025 87.8125 415.025 84.8375C415.025 81.775 414.413 79.7187 413.188 78.6687C412.05 77.5312 410.3 76.9625 407.938 76.9625C405.663 76.9625 403.388 77.9687 401.113 79.9812C398.925 81.9937 397.088 84.5312 395.6 87.5937C393.238 92.1437 391.663 95.8625 390.875 98.75V98.8812L386.15 125H370.4L379.063 76.5687C376.438 76.8312 374.25 78.0562 372.5 80.2437L370.531 78.6687ZM467.473 126.181C459.773 126.181 455.573 122.812 454.873 116.075C451.023 122.812 446.166 126.181 440.304 126.181C434.441 126.181 429.76 124.431 426.26 120.931C422.848 117.344 421.141 112.356 421.141 105.969C421.141 95.9937 423.591 88.1625 428.491 82.475C433.391 76.7875 439.735 73.9437 447.523 73.9437C453.91 73.9437 458.154 76.9625 460.254 83C460.691 80.375 461.173 77.75 461.698 75.125C468.173 75.125 472.985 74.8625 476.135 74.3375L477.841 73.9437L468.785 123.556C471.41 123.294 473.598 122.069 475.348 119.881L477.316 121.456C474.691 124.606 471.41 126.181 467.473 126.181ZM435.973 112.662C435.973 116.6 436.454 119.356 437.416 120.931C438.466 122.419 440.041 123.162 442.141 123.162C444.241 123.162 446.385 122.025 448.573 119.75C451.46 116.775 453.779 113.012 455.529 108.462C455.791 107.325 456.273 104.612 456.973 100.325C457.76 95.95 458.416 92.3625 458.941 89.5625C458.679 86.2375 457.76 83.35 456.185 80.9C454.61 78.45 452.641 77.225 450.279 77.225C445.991 77.225 442.535 81.075 439.91 88.775C437.285 96.3875 435.973 104.35 435.973 112.662ZM508.997 121.456C506.372 124.606 503.091 126.181 499.153 126.181C495.216 126.181 492.109 125.175 489.834 123.162C487.647 121.15 486.553 118.525 486.553 115.287C486.553 114.15 487.253 109.381 488.653 100.981L492.984 77.4875H487.472L487.734 75.125H493.378C499.853 75.125 504.622 74.8625 507.684 74.3375L509.522 73.9437L500.466 123.556C503.091 123.294 505.278 122.069 507.028 119.881L508.997 121.456ZM497.447 61.3437C495.609 59.5062 494.691 57.275 494.691 54.65C494.691 52.025 495.609 49.7937 497.447 47.9562C499.284 46.0312 501.516 45.0687 504.141 45.0687C506.766 45.0687 508.997 46.0312 510.834 47.9562C512.759 49.7937 513.722 52.025 513.722 54.65C513.722 57.275 512.759 59.5062 510.834 61.3437C508.997 63.1812 506.766 64.1 504.141 64.1C501.516 64.1 499.284 63.1812 497.447 61.3437Z" fill="#E9B949"/>
<path d="M33.9938 114.05C29.9688 114.05 26.775 113.131 24.4125 111.294L20.475 132.425H4.85625L17.1938 63.65C14.5688 63.9125 12.3813 65.1375 10.6313 67.325L8.6625 65.75C11.2875 62.6 14.525 61.025 18.375 61.025C22.3125 61.025 25.375 61.9875 27.5625 63.9125C29.75 65.75 30.9313 68.375 31.1063 71.7875C34.9563 65.225 39.8563 61.9437 45.8063 61.9437C51.7563 61.9437 56.3063 63.65 59.4563 67.0625C62.6063 70.3875 64.1813 74.9812 64.1813 80.8437C64.1813 91.1687 61.3813 99.3062 55.7813 105.256C50.1813 111.119 42.9188 114.05 33.9938 114.05ZM25.3313 106.044C26.8188 109.369 29.6188 111.031 33.7312 111.031C37.9313 111.031 41.5625 107.531 44.625 100.531C47.775 93.5312 49.35 85.175 49.35 75.4625C49.35 71.4375 48.9125 68.6812 48.0375 67.1937C47.25 65.7062 45.7625 64.9625 43.575 64.9625C41.3875 64.9625 39.1125 66.275 36.75 68.9C34.475 71.525 32.8125 74.0187 31.7625 76.3812C30.7125 78.6562 30.1875 79.9687 30.1875 80.3187H30.0563L25.3313 106.044ZM94.8302 109.456C92.2052 112.606 88.9239 114.181 84.9864 114.181C81.0489 114.181 77.9427 113.175 75.6677 111.162C73.4802 109.15 72.3864 106.525 72.3864 103.287C72.3864 102.15 73.0864 97.3812 74.4864 88.9812L78.8177 65.4875H73.3052L73.5677 63.125H79.2114C85.6864 63.125 90.4552 62.8625 93.5177 62.3375L95.3552 61.9437L86.2989 111.556C88.9239 111.294 91.1114 110.069 92.8614 107.881L94.8302 109.456ZM83.2802 49.3437C81.4427 47.5062 80.5239 45.275 80.5239 42.65C80.5239 40.025 81.4427 37.7937 83.2802 35.9562C85.1177 34.0312 87.3489 33.0687 89.9739 33.0687C92.5989 33.0687 94.8302 34.0312 96.6677 35.9562C98.5927 37.7937 99.5552 40.025 99.5552 42.65C99.5552 45.275 98.5927 47.5062 96.6677 49.3437C94.8302 51.1812 92.5989 52.1 89.9739 52.1C87.3489 52.1 85.1177 51.1812 83.2802 49.3437ZM110.474 64.5687C108.374 64.5687 106.186 65.7937 103.911 68.2437L101.942 66.6687C102.555 65.4437 103.911 64.35 106.011 63.3875C108.111 62.425 110.43 61.9437 112.967 61.9437C120.93 61.9437 124.911 65.5312 124.911 72.7062C124.911 75.7687 124.08 80.8 122.417 87.8C120.755 94.7125 119.924 99.3937 119.924 101.844C119.924 106.044 121.674 108.144 125.174 108.144C128.061 108.144 130.861 106.175 133.574 102.237C136.374 98.3 138.649 93.0062 140.399 86.3562L144.73 63.125C151.205 63.125 155.93 62.8625 158.905 62.3375L160.611 61.9437L152.342 108.406C150.767 117.419 147.092 124.463 141.317 129.538C135.63 134.613 128.236 137.15 119.136 137.15C113.624 137.15 109.336 136.188 106.274 134.263C103.299 132.425 101.811 129.975 101.811 126.913C101.811 123.938 102.73 121.531 104.567 119.694C106.405 117.944 108.986 117.069 112.311 117.069C115.724 117.069 118.874 117.594 121.761 118.644C124.649 119.781 126.749 120.438 128.061 120.613L127.799 122.975C126.311 122.8 124.167 122.188 121.367 121.138C118.567 120.088 115.767 119.563 112.967 119.563C110.255 119.563 108.155 120.175 106.667 121.4C105.267 122.625 104.567 124.375 104.567 126.65C104.567 129.013 105.836 130.894 108.374 132.294C110.911 133.781 114.061 134.525 117.824 134.525C126.924 134.525 132.524 129.056 134.624 118.119L137.905 100.006C134.23 108.056 128.674 112.081 121.236 112.081C116.161 112.081 112.224 110.637 109.424 107.75C106.711 104.862 105.355 100.794 105.355 95.5437C105.355 92.8312 106.142 87.975 107.717 80.975C109.38 73.8875 110.299 68.4187 110.474 64.5687ZM173.92 64.5687C171.82 64.5687 169.632 65.7937 167.357 68.2437L165.388 66.6687C166.001 65.4437 167.357 64.35 169.457 63.3875C171.557 62.425 173.876 61.9437 176.413 61.9437C184.376 61.9437 188.357 65.5312 188.357 72.7062C188.357 75.7687 187.57 81.2375 185.995 89.1125C184.42 96.9875 183.632 102.15 183.632 104.6C183.632 108.362 185.426 110.244 189.013 110.244C191.551 110.244 194.001 108.756 196.363 105.781C198.813 102.806 200.913 98.6937 202.663 93.4437L208.176 63.125C214.651 63.125 219.376 62.8625 222.351 62.3375L224.057 61.9437L215.263 111.556C217.888 111.294 220.076 110.069 221.826 107.881L223.795 109.456C221.17 112.606 217.888 114.181 213.951 114.181C210.013 114.181 206.951 113.219 204.763 111.294C202.576 109.369 201.438 106.656 201.351 103.156C197.676 110.506 192.251 114.181 185.076 114.181C179.913 114.181 175.888 112.738 173.001 109.85C170.113 106.875 168.67 102.806 168.67 97.6437C168.67 94.9312 169.501 89.725 171.163 82.025C172.826 74.2375 173.745 68.4187 173.92 64.5687ZM243.616 110.769C252.279 110.769 256.61 104.381 256.61 91.6062C256.61 88.4562 256.129 84.7375 255.166 80.45C254.291 76.1625 253.766 73.4937 253.591 72.4437C248.254 77.9562 242.26 81.2812 235.61 82.4187V79.2688C241.91 77.8687 247.816 74.2812 253.329 68.5062V67.9812C253.329 65.8812 253.635 63.825 254.248 61.8125C254.86 59.8 255.473 58.3125 256.085 57.35L257.004 55.9062H260.154C260.154 59.7562 260.766 63.3 261.991 66.5375C263.216 69.6875 264.573 72.2687 266.06 74.2812C267.548 76.2062 268.904 78.7875 270.129 82.025C271.354 85.175 271.966 88.675 271.966 92.525C271.966 98.7375 269.604 103.9 264.879 108.012C260.241 112.125 254.641 114.181 248.079 114.181C241.516 114.181 236.529 112.694 233.116 109.719C229.791 106.744 228.129 103.331 228.129 99.4812C228.129 95.5437 229.091 92.7437 231.016 91.0812C232.941 89.3312 235.216 88.4562 237.841 88.4562C240.466 88.4562 242.61 89.3312 244.273 91.0812C246.023 92.7437 246.898 94.9312 246.898 97.6437C246.898 100.269 246.066 102.5 244.404 104.338C242.741 106.175 240.598 107.094 237.973 107.094C236.835 107.094 235.654 106.919 234.429 106.569C236.354 109.369 239.416 110.769 243.616 110.769ZM328.819 111.556C330.919 111.556 333.107 110.331 335.382 107.881L337.35 109.456C336.738 110.681 335.382 111.775 333.282 112.737C331.182 113.7 328.863 114.181 326.325 114.181C318.363 114.181 314.382 110.594 314.382 103.419C314.382 100.356 315.169 94.8875 316.744 87.0125C318.319 79.1375 319.107 73.975 319.107 71.525C319.107 67.7625 317.313 65.8812 313.725 65.8812C310.75 65.8812 307.863 67.8937 305.063 71.9187C302.35 75.9437 300.119 81.4125 298.369 88.325L294.038 113H278.288L292.857 30.575C290.232 30.8375 288.044 32.0625 286.294 34.25L284.325 32.675C286.95 29.525 290.232 27.95 294.169 27.95C298.194 27.95 301.3 28.9562 303.488 30.9688C305.675 32.9812 306.769 35.825 306.769 39.5C306.769 40.2 306.682 41.3375 306.507 42.9125L300.994 74.0187C304.582 65.9687 310.138 61.9437 317.663 61.9437C322.825 61.9437 326.85 63.4312 329.738 66.4062C332.625 69.2937 334.069 73.3187 334.069 78.4812C334.069 81.1937 333.238 86.4437 331.575 94.2312C329.913 101.931 328.994 107.706 328.819 111.556Z" fill="black"/>
</svg>
