<svg width="513" height="166" viewBox="0 0 513 166" fill="none" xmlns="http://www.w3.org/2000/svg">
<path d="M387.635 79.7825V134H369.178V64.658H386.545L387.635 79.7825ZM408.527 64.2094L408.207 81.3206C407.309 81.1924 406.22 81.0856 404.938 81.0001C403.699 80.8719 402.567 80.8079 401.542 80.8079C398.935 80.8079 396.671 81.1497 394.748 81.8333C392.869 82.4741 391.288 83.4354 390.006 84.7172C388.767 85.9989 387.827 87.5583 387.186 89.3955C386.588 91.2327 386.246 93.3262 386.161 95.676L382.444 94.5225C382.444 90.0364 382.892 85.9135 383.79 82.1537C384.687 78.3512 385.99 75.04 387.699 72.2202C389.451 69.4004 391.587 67.2214 394.108 65.6833C396.628 64.1453 399.512 63.3762 402.759 63.3762C403.785 63.3762 404.831 63.4617 405.9 63.6326C406.968 63.7607 407.844 63.953 408.527 64.2094ZM452.491 118.363V87.4729C452.491 85.2512 452.128 83.35 451.401 81.7692C450.675 80.1456 449.543 78.8853 448.005 77.988C446.509 77.0908 444.565 76.6422 442.173 76.6422C440.122 76.6422 438.349 77.0054 436.854 77.7317C435.358 78.4153 434.205 79.4193 433.393 80.7438C432.581 82.0255 432.175 83.5422 432.175 85.2939H413.718C413.718 82.3459 414.402 79.5475 415.769 76.8986C417.136 74.2496 419.123 71.9211 421.729 69.9131C424.335 67.8623 427.433 66.2601 431.022 65.1066C434.653 63.953 438.712 63.3762 443.198 63.3762C448.581 63.3762 453.367 64.2734 457.554 66.0679C461.741 67.8623 465.03 70.554 467.423 74.1428C469.858 77.7317 471.076 82.2178 471.076 87.6011V117.273C471.076 121.076 471.311 124.195 471.781 126.63C472.251 129.023 472.934 131.116 473.832 132.911V134H455.182C454.285 132.12 453.602 129.77 453.132 126.95C452.704 124.088 452.491 121.225 452.491 118.363ZM454.926 91.7667L455.054 102.213H444.736C442.301 102.213 440.186 102.491 438.392 103.046C436.597 103.601 435.123 104.392 433.97 105.417C432.816 106.4 431.962 107.553 431.406 108.878C430.893 110.202 430.637 111.655 430.637 113.236C430.637 114.817 431 116.248 431.727 117.53C432.453 118.769 433.5 119.751 434.867 120.478C436.234 121.161 437.836 121.503 439.673 121.503C442.45 121.503 444.864 120.948 446.915 119.837C448.966 118.726 450.547 117.359 451.658 115.735C452.811 114.112 453.409 112.574 453.452 111.121L458.323 118.94C457.639 120.691 456.699 122.507 455.503 124.387C454.349 126.267 452.875 128.04 451.081 129.706C449.286 131.33 447.129 132.676 444.608 133.744C442.087 134.769 439.097 135.282 435.636 135.282C431.235 135.282 427.24 134.406 423.652 132.654C420.105 130.86 417.286 128.403 415.192 125.284C413.141 122.123 412.116 118.534 412.116 114.518C412.116 110.886 412.8 107.66 414.167 104.84C415.534 102.021 417.542 99.6494 420.191 97.7268C422.883 95.7615 426.236 94.2875 430.253 93.3048C434.269 92.2794 438.926 91.7667 444.224 91.7667H454.926ZM504.786 64.658V134H486.265V64.658H504.786ZM485.111 46.5854C485.111 43.8938 486.051 41.6721 487.931 39.9204C489.811 38.1687 492.331 37.2928 495.493 37.2928C498.612 37.2928 501.111 38.1687 502.991 39.9204C504.914 41.6721 505.875 43.8938 505.875 46.5854C505.875 49.2771 504.914 51.4988 502.991 53.2505C501.111 55.0022 498.612 55.8781 495.493 55.8781C492.331 55.8781 489.811 55.0022 487.931 53.2505C486.051 51.4988 485.111 49.2771 485.111 46.5854Z" fill="#E9B949"/>
<path d="M25.6348 65.988V148.66H7.17773V52.658H24.2889L25.6348 65.988ZM69.5343 86.5599V87.9058C69.5343 92.9473 68.9362 97.6256 67.7399 101.941C66.5863 106.256 64.8773 110.016 62.6129 113.22C60.3485 116.382 57.5287 118.86 54.1534 120.654C50.8209 122.406 46.9757 123.282 42.6178 123.282C38.3881 123.282 34.7137 122.427 31.5948 120.718C28.476 119.009 25.8484 116.617 23.7122 113.541C21.6187 110.422 19.931 106.811 18.6493 102.71C17.3676 98.6083 16.3849 94.2076 15.7013 89.5079V85.9832C16.3849 80.9417 17.3676 76.3274 18.6493 72.1404C19.931 67.9106 21.6187 64.2577 23.7122 61.1815C25.8484 58.0626 28.4546 55.6487 31.5308 53.9397C34.6497 52.2307 38.3026 51.3762 42.4896 51.3762C46.8903 51.3762 50.7568 52.2094 54.0894 53.8756C57.4646 55.5419 60.2844 57.9344 62.5488 61.0533C64.856 64.1722 66.5863 67.8893 67.7399 72.2045C68.9362 76.5197 69.5343 81.3048 69.5343 86.5599ZM51.0132 87.9058V86.5599C51.0132 83.6119 50.7568 80.8989 50.2441 78.4209C49.7742 75.9001 49.0051 73.6998 47.937 71.8199C46.9116 69.9401 45.5444 68.4874 43.8354 67.462C42.1692 66.3939 40.1398 65.8599 37.7472 65.8599C35.2264 65.8599 33.0688 66.2657 31.2744 67.0775C29.5227 67.8893 28.0914 69.0642 26.9806 70.6023C25.8698 72.1404 25.0366 73.9775 24.4812 76.1138C23.9258 78.25 23.584 80.6639 23.4558 83.3556V92.2637C23.6694 95.4253 24.2676 98.2665 25.2502 100.787C26.2329 103.265 27.7496 105.231 29.8004 106.683C31.8512 108.136 34.5428 108.862 37.8754 108.862C40.3107 108.862 42.3615 108.328 44.0277 107.26C45.694 106.149 47.0398 104.632 48.0652 102.71C49.1333 100.787 49.881 98.5656 50.3082 96.0448C50.7782 93.524 51.0132 90.811 51.0132 87.9058ZM100.488 52.658V122H81.9672V52.658H100.488ZM80.8136 34.5854C80.8136 31.8938 81.7535 29.6721 83.6334 27.9204C85.5133 26.1687 88.0341 25.2928 91.1957 25.2928C94.3146 25.2928 96.814 26.1687 98.6938 27.9204C100.616 29.6721 101.578 31.8938 101.578 34.5854C101.578 37.2771 100.616 39.4988 98.6938 41.2505C96.814 43.0022 94.3146 43.8781 91.1957 43.8781C88.0341 43.8781 85.5133 43.0022 83.6334 41.2505C81.7535 39.4988 80.8136 37.2771 80.8136 34.5854ZM136.313 114.181L154.706 52.658H174.509L146.631 132.446C146.033 134.198 145.221 136.078 144.196 138.086C143.213 140.094 141.867 141.995 140.158 143.79C138.492 145.627 136.377 147.122 133.813 148.276C131.293 149.429 128.195 150.006 124.521 150.006C122.769 150.006 121.338 149.899 120.227 149.686C119.116 149.472 117.792 149.173 116.254 148.788V135.266C116.724 135.266 117.215 135.266 117.728 135.266C118.24 135.309 118.732 135.33 119.202 135.33C121.637 135.33 123.624 135.052 125.162 134.497C126.7 133.942 127.939 133.087 128.879 131.933C129.819 130.823 130.566 129.37 131.122 127.576L136.313 114.181ZM128.622 52.658L143.683 102.902L146.31 122.449L133.749 123.794L108.82 52.658H128.622ZM222.894 105.401V52.658H241.351V122H223.984L222.894 105.401ZM224.945 91.1742L230.392 91.046C230.392 95.6603 229.858 99.9541 228.79 103.927C227.722 107.858 226.12 111.276 223.984 114.181C221.848 117.044 219.156 119.287 215.909 120.911C212.662 122.491 208.838 123.282 204.437 123.282C201.062 123.282 197.943 122.812 195.081 121.872C192.261 120.889 189.825 119.372 187.775 117.322C185.767 115.228 184.186 112.558 183.032 109.311C181.921 106.021 181.366 102.069 181.366 97.4547V52.658H199.823V97.5829C199.823 99.6337 200.058 101.364 200.528 102.774C201.041 104.184 201.746 105.337 202.643 106.235C203.54 107.132 204.587 107.773 205.783 108.157C207.022 108.542 208.389 108.734 209.885 108.734C213.687 108.734 216.678 107.965 218.857 106.427C221.078 104.889 222.638 102.795 223.535 100.146C224.475 97.4547 224.945 94.464 224.945 91.1742ZM292.941 102.838C292.941 101.514 292.557 100.317 291.788 99.2491C291.019 98.181 289.587 97.1984 287.494 96.3011C285.443 95.3612 282.474 94.5067 278.586 93.7377C275.082 92.9686 271.814 92.0073 268.781 90.8538C265.79 89.6575 263.184 88.2262 260.962 86.5599C258.783 84.8937 257.074 82.9283 255.835 80.6639C254.596 78.3568 253.976 75.7292 253.976 72.7812C253.976 69.876 254.596 67.1416 255.835 64.5781C257.117 62.0146 258.932 59.7502 261.282 57.7849C263.675 55.7769 266.58 54.2174 269.998 53.1066C273.459 51.953 277.347 51.3762 281.662 51.3762C287.686 51.3762 292.856 52.3375 297.171 54.2601C301.529 56.1827 304.861 58.8317 307.169 62.2069C309.518 65.5394 310.693 69.3419 310.693 73.6144H292.236C292.236 71.8199 291.852 70.2178 291.083 68.8079C290.356 67.3552 289.203 66.223 287.622 65.4113C286.084 64.5568 284.076 64.1295 281.598 64.1295C279.547 64.1295 277.774 64.4927 276.279 65.219C274.783 65.9026 273.63 66.8425 272.818 68.0388C272.049 69.1924 271.664 70.4741 271.664 71.884C271.664 72.9521 271.878 73.9135 272.305 74.7679C272.775 75.5797 273.523 76.3274 274.548 77.011C275.574 77.6946 276.898 78.3354 278.522 78.9336C280.188 79.489 282.239 80.0017 284.674 80.4717C289.673 81.4971 294.138 82.8429 298.068 84.5092C301.999 86.1327 305.118 88.3544 307.425 91.1742C309.732 93.9513 310.886 97.6042 310.886 102.133C310.886 105.209 310.202 108.029 308.835 110.593C307.468 113.156 305.502 115.399 302.939 117.322C300.375 119.202 297.299 120.676 293.71 121.744C290.164 122.769 286.169 123.282 281.726 123.282C275.275 123.282 269.806 122.128 265.32 119.821C260.876 117.514 257.501 114.587 255.194 111.041C252.93 107.452 251.797 103.778 251.797 100.018H269.293C269.379 102.539 270.02 104.568 271.216 106.106C272.455 107.645 274.014 108.755 275.894 109.439C277.817 110.123 279.889 110.464 282.111 110.464C284.503 110.464 286.49 110.144 288.071 109.503C289.651 108.819 290.848 107.922 291.66 106.811C292.514 105.658 292.941 104.333 292.941 102.838ZM340.878 23.5625V122H322.421V23.5625H340.878ZM338.251 84.8937H333.188C333.231 80.0658 333.871 75.6224 335.11 71.5636C336.349 67.462 338.123 63.9159 340.43 60.9252C342.737 57.8917 345.493 55.5419 348.697 53.8756C351.944 52.2094 355.533 51.3762 359.464 51.3762C362.881 51.3762 365.979 51.8676 368.756 52.8502C371.576 53.7902 373.99 55.3282 375.998 57.4645C378.049 59.558 379.63 62.3137 380.74 65.7317C381.851 69.1497 382.407 73.2939 382.407 78.1646V122H363.821V78.0364C363.821 74.9602 363.373 72.5463 362.476 70.7946C361.621 69.0001 360.361 67.7397 358.694 67.0134C357.071 66.2444 355.063 65.8599 352.67 65.8599C350.021 65.8599 347.757 66.3512 345.877 67.3339C344.04 68.3165 342.566 69.6837 341.455 71.4354C340.344 73.1444 339.532 75.1525 339.02 77.4596C338.507 79.7667 338.251 82.2448 338.251 84.8937Z" fill="black"/>
</svg>
